<?xml version="1.0" encoding="utf-8"?>
<!-- Generator: Adobe Illustrator 25.2.1, SVG Export Plug-In . SVG Version: 6.00 Build 0)  -->
<svg version="1.1" id="Calque_1" xmlns="http://www.w3.org/2000/svg" xmlns:xlink="http://www.w3.org/1999/xlink" x="0px" y="0px"
	 viewBox="0 0 24 24" style="enable-background:new 0 0 24 24;" xml:space="preserve">
<style type="text/css">
	.st0{fill:url(#SVGID_1_);stroke:#4C779B;stroke-width:0.5;stroke-miterlimit:10;}
	.st1{fill:url(#SVGID_2_);stroke:#B28132;stroke-width:0.75;stroke-miterlimit:10;}
	.st2{fill:url(#SVGID_3_);stroke:#B28132;stroke-width:0.5;stroke-miterlimit:10;}
	.st3{fill:url(#SVGID_4_);stroke:#B28132;stroke-width:0.5;stroke-miterlimit:10;}
	.st4{fill:url(#SVGID_5_);}
	.st5{fill:url(#SVGID_6_);}
	.st6{fill:url(#SVGID_7_);}
	.st7{fill:url(#SVGID_8_);}
	.st8{fill:url(#SVGID_9_);}
	.st9{fill:url(#SVGID_10_);}
	.st10{fill:url(#SVGID_11_);}
	.st11{fill:url(#SVGID_12_);stroke:#B28132;stroke-width:0.5;stroke-linejoin:round;stroke-miterlimit:10;}
</style>
<linearGradient id="SVGID_1_" gradientUnits="userSpaceOnUse" x1="196.9837" y1="-207.0793" x2="177.7741" y2="-184.702" gradientTransform="matrix(0.9985 -5.590000e-02 5.590000e-02 0.9985 -164.7549 219.561)">
	<stop  offset="0" style="stop-color:#8BC6C3"/>
	<stop  offset="0.6011" style="stop-color:#8BC6C3"/>
	<stop  offset="0.7091" style="stop-color:#81B6B4"/>
	<stop  offset="0.8217" style="stop-color:#79AAA9"/>
</linearGradient>
<path class="st0" d="M3.7,3.7l16.9-1c0,0,1,15.2,1.1,17.1c0,0-5.7,0.6-7.9,0.7s-9.4-0.3-9.4-0.3L3.7,3.7z"/>
<linearGradient id="SVGID_2_" gradientUnits="userSpaceOnUse" x1="227.8226" y1="-206.7452" x2="227.8226" y2="-206.7452" gradientTransform="matrix(0.9828 0.1847 -0.1847 0.9828 -247.4378 182.6047)">
	<stop  offset="0" style="stop-color:#E6AC4C"/>
	<stop  offset="0.1999" style="stop-color:#EAB860"/>
	<stop  offset="0.4234" style="stop-color:#EEC170"/>
	<stop  offset="0.6011" style="stop-color:#EFC475"/>
	<stop  offset="0.7439" style="stop-color:#E9B358"/>
	<stop  offset="0.8304" style="stop-color:#E6AC4C"/>
</linearGradient>
<path class="st1" d="M14.7,21.5"/>
<linearGradient id="SVGID_3_" gradientUnits="userSpaceOnUse" x1="230.1085" y1="-224.071" x2="211.0363" y2="-201.8538" gradientTransform="matrix(0.9828 0.1847 -0.1847 0.9828 -247.4378 182.6047)">
	<stop  offset="0" style="stop-color:#E6AC4C"/>
	<stop  offset="0.1999" style="stop-color:#EAB860"/>
	<stop  offset="0.4234" style="stop-color:#EEC170"/>
	<stop  offset="0.6011" style="stop-color:#EFC475"/>
	<stop  offset="0.7439" style="stop-color:#E9B358"/>
	<stop  offset="0.8304" style="stop-color:#E6AC4C"/>
</linearGradient>
<path class="st2" d="M14.3,22.6c-1.5-0.2-3-0.5-3.9-0.7c-2.1-0.4-9.1-2.2-9.1-2.2L4.7,3.5l16.1,3c0,0-1.5,8.5-2.3,13.4"/>
<linearGradient id="SVGID_4_" gradientUnits="userSpaceOnUse" x1="231.2848" y1="-208.9998" x2="231.2848" y2="-208.9998" gradientTransform="matrix(0.9828 0.1847 -0.1847 0.9828 -247.4378 182.6047)">
	<stop  offset="0" style="stop-color:#E6AC4C"/>
	<stop  offset="0.1999" style="stop-color:#EAB860"/>
	<stop  offset="0.4234" style="stop-color:#EEC170"/>
	<stop  offset="0.6011" style="stop-color:#EFC475"/>
	<stop  offset="0.7439" style="stop-color:#E9B358"/>
	<stop  offset="0.8304" style="stop-color:#E6AC4C"/>
</linearGradient>
<path class="st3" d="M18.5,19.9"/>
<linearGradient id="SVGID_5_" gradientUnits="userSpaceOnUse" x1="3.9555" y1="4.136" x2="7.2893" y2="8.7743">
	<stop  offset="0.5287" style="stop-color:#272425"/>
	<stop  offset="0.985" style="stop-color:#BABCBE"/>
</linearGradient>
<path class="st4" d="M7.2,8.3c0,0,0,0.2-0.1,0.3s-0.3,0-0.3,0L5.6,7l0.6-0.3L7.2,8.3z"/>
<g>
	
		<linearGradient id="SVGID_6_" gradientUnits="userSpaceOnUse" x1="-107.5049" y1="-81.7873" x2="-104.7456" y2="-75.8143" gradientTransform="matrix(0.8861 -0.4636 0.4636 0.8861 134.8195 25.8265)">
		<stop  offset="0.1064" style="stop-color:#355DC2"/>
		<stop  offset="0.2434" style="stop-color:#365CBD"/>
		<stop  offset="0.4105" style="stop-color:#3759AE"/>
		<stop  offset="0.5932" style="stop-color:#3A5395"/>
		<stop  offset="0.7871" style="stop-color:#3E4C73"/>
		<stop  offset="0.9879" style="stop-color:#434347"/>
		<stop  offset="1" style="stop-color:#434244"/>
	</linearGradient>
	<path class="st5" d="M5.5,6.7C4.5,7.2,3.6,7.2,3,6.5c0,0.1,0.1,0.2,0.1,0.3c0.4,0.8,1.5,1,2.6,0.4s1.6-1.7,1.2-2.4c0,0,0,0-0.1-0.2
		C7,5.3,6.5,6.2,5.5,6.7z"/>
	
		<linearGradient id="SVGID_7_" gradientUnits="userSpaceOnUse" x1="-107.069" y1="-81.1039" x2="-104.1507" y2="-74.7868" gradientTransform="matrix(0.8861 -0.4636 0.4636 0.8861 134.8195 25.8265)">
		<stop  offset="0.1064" style="stop-color:#355DC2"/>
		<stop  offset="0.2434" style="stop-color:#365CBD"/>
		<stop  offset="0.4105" style="stop-color:#3759AE"/>
		<stop  offset="0.5932" style="stop-color:#3A5395"/>
		<stop  offset="0.7871" style="stop-color:#3E4C73"/>
		<stop  offset="0.9879" style="stop-color:#434347"/>
		<stop  offset="1" style="stop-color:#434244"/>
	</linearGradient>
	<path class="st6" d="M5.5,6.7C6.4,6.2,7,5.6,6.8,4.5C6.3,4,5.2,3.9,4.3,4.4C3.3,4.8,2.8,5.7,3,6.5C3.5,7.1,4.6,7.2,5.5,6.7z"/>
</g>
<linearGradient id="SVGID_8_" gradientUnits="userSpaceOnUse" x1="-104.3646" y1="-76.6324" x2="-106.6607" y2="-82.2452" gradientTransform="matrix(0.8861 -0.4636 0.4636 0.8861 134.8195 25.8265)">
	<stop  offset="0.1064" style="stop-color:#355DC2"/>
	<stop  offset="0.2434" style="stop-color:#365CBD"/>
	<stop  offset="0.4105" style="stop-color:#3759AE"/>
	<stop  offset="0.5932" style="stop-color:#3A5395"/>
	<stop  offset="0.7871" style="stop-color:#3E4C73"/>
	<stop  offset="0.9879" style="stop-color:#434347"/>
	<stop  offset="1" style="stop-color:#434244"/>
</linearGradient>
<path class="st7" d="M2.6,3.4c0,0,0.7,0.6,1.2,2.3c0,0,0.5,0.5,1.3,0.1c0.8-0.5,0.6-1.2,0.6-1.2S4.4,3.1,4.4,2.3
	C4.4,2.3,2.9,2.6,2.6,3.4z"/>
<linearGradient id="SVGID_9_" gradientUnits="userSpaceOnUse" x1="-107.8656" y1="-83.5433" x2="-103.6929" y2="-79.3707" gradientTransform="matrix(0.8861 -0.4636 0.4636 0.8861 134.8195 25.8265)">
	<stop  offset="0.2846" style="stop-color:#355DC2"/>
	<stop  offset="0.3872" style="stop-color:#365BB9"/>
	<stop  offset="0.5572" style="stop-color:#39569F"/>
	<stop  offset="0.7735" style="stop-color:#3D4D76"/>
	<stop  offset="1" style="stop-color:#434244"/>
</linearGradient>
<path class="st8" d="M4.8,1.9c0.3,0.6-0.1,1.4-0.9,1.8S2.3,4,2,3.4s0.1-1.3,0.9-1.7S4.5,1.4,4.8,1.9z"/>
<linearGradient id="SVGID_10_" gradientUnits="userSpaceOnUse" x1="-107.2494" y1="-83.0166" x2="-103.2699" y2="-79.0371" gradientTransform="matrix(0.8861 -0.4636 0.4636 0.8861 134.8195 25.8265)">
	<stop  offset="0.2846" style="stop-color:#355DC2"/>
	<stop  offset="0.3872" style="stop-color:#365BB9"/>
	<stop  offset="0.5572" style="stop-color:#39569F"/>
	<stop  offset="0.7735" style="stop-color:#3D4D76"/>
	<stop  offset="1" style="stop-color:#434244"/>
</linearGradient>
<path class="st9" d="M4.8,1.9c0.2,0.5-0.2,1.2-1,1.6S2.2,3.8,1.9,3.4c-0.2-0.5,0.2-1.3,1-1.7S4.6,1.4,4.8,1.9z"/>
<linearGradient id="SVGID_11_" gradientUnits="userSpaceOnUse" x1="-106.6883" y1="-82.9729" x2="-105.3905" y2="-80.1635" gradientTransform="matrix(0.9503 -0.3115 0.3115 0.9503 129.386 47.0276)">
	<stop  offset="0.2637" style="stop-color:#355DC2"/>
	<stop  offset="0.3765" style="stop-color:#365CBD"/>
	<stop  offset="0.5142" style="stop-color:#3759AE"/>
	<stop  offset="0.6647" style="stop-color:#3A5395"/>
	<stop  offset="0.8245" style="stop-color:#3E4C73"/>
	<stop  offset="0.99" style="stop-color:#434347"/>
	<stop  offset="1" style="stop-color:#434244"/>
</linearGradient>
<path class="st10" d="M4.5,2.1c0.1,0.3-0.4,0.8-1.1,1S2,3.2,1.9,2.9c-0.1-0.3,0.4-0.7,1-1C3.5,1.8,4.3,1.8,4.5,2.1z"/>
<linearGradient id="SVGID_12_" gradientUnits="userSpaceOnUse" x1="17.628" y1="18.5949" x2="12.7395" y2="22.513">
	<stop  offset="0" style="stop-color:#E6AC4C"/>
	<stop  offset="0.1999" style="stop-color:#EAB860"/>
	<stop  offset="0.4234" style="stop-color:#EEC170"/>
	<stop  offset="0.6011" style="stop-color:#EFC475"/>
	<stop  offset="0.7439" style="stop-color:#E9B358"/>
	<stop  offset="0.8304" style="stop-color:#E6AC4C"/>
</linearGradient>
<polygon class="st11" points="14.7,18.9 18.5,19.9 14.2,22.5 "/>
</svg>
