<?xml version="1.0" encoding="utf-8"?>
<!-- Generator: Adobe Illustrator 25.2.1, SVG Export Plug-In . SVG Version: 6.00 Build 0)  -->
<svg version="1.1" id="Calque_1" xmlns="http://www.w3.org/2000/svg" xmlns:xlink="http://www.w3.org/1999/xlink" x="0px" y="0px"
	 viewBox="0 0 24 24" style="enable-background:new 0 0 24 24;" xml:space="preserve">
<style type="text/css">
	.st0{fill:url(#SVGID_2_);}
	.st1{fill:url(#SVGID_3_);}
	.st2{clip-path:url(#SVGID_6_);}
	.st3{clip-path:url(#SVGID_7_);fill:url(#SVGID_8_);}
	.st4{fill:url(#SVGID_9_);}
	.st5{fill:url(#SVGID_10_);}
	.st6{fill:url(#SVGID_11_);}
	.st7{fill:url(#SVGID_12_);}
	.st8{fill:url(#SVGID_13_);}
	.st9{fill:url(#SVGID_14_);}
	.st10{fill:url(#SVGID_15_);}
	.st11{fill:url(#SVGID_16_);}
	.st12{fill:url(#SVGID_17_);}
	.st13{fill:#FFFFFF;}
</style>
<g>
	
		<image style="overflow:visible;enable-background:new    ;" width="18" height="21" xlink:href="3DA275AA.png"  transform="matrix(1 0 0 1 5 5)">
	</image>
	
		<linearGradient id="SVGID_2_" gradientUnits="userSpaceOnUse" x1="196.0766" y1="229.9343" x2="179.0325" y2="210.0797" gradientTransform="matrix(0.9985 -5.590000e-02 -5.590000e-02 -0.9985 -163.4133 243.525)">
		<stop  offset="0" style="stop-color:#8BC6C3"/>
		<stop  offset="0.6011" style="stop-color:#8BC6C3"/>
		<stop  offset="0.7091" style="stop-color:#81B6B4"/>
		<stop  offset="0.8217" style="stop-color:#79AAA9"/>
	</linearGradient>
	<path class="st0" d="M4.7,4.6l15-0.9c0,0,0.9,13.5,1,15.2c0,0-5.1,0.5-7,0.6s-8.3-0.3-8.3-0.3L4.7,4.6z"/>
</g>
<linearGradient id="SVGID_3_" gradientUnits="userSpaceOnUse" x1="229.625" y1="247.2478" x2="212.2138" y2="226.9655" gradientTransform="matrix(0.9828 0.1847 0.1847 -0.9828 -251.8706 206.1919)">
	<stop  offset="0" style="stop-color:#E6AC4C"/>
	<stop  offset="0.1999" style="stop-color:#EAB860"/>
	<stop  offset="0.4234" style="stop-color:#EEC170"/>
	<stop  offset="0.6011" style="stop-color:#EFC475"/>
	<stop  offset="0.7439" style="stop-color:#E9B358"/>
	<stop  offset="0.8304" style="stop-color:#E6AC4C"/>
</linearGradient>
<path class="st1" d="M4.5,3.5l15,2.8c0,0-2.4,13.8-2.7,15.5c0,0-5.1-0.7-7-1.1c-2-0.4-8.1-2.3-8.1-2.3L4.5,3.5z"/>
<g>
	<g>
		<defs>
			<polygon id="SVGID_4_" points="1,1 2,1 1,2 			"/>
		</defs>
		<defs>
			<polygon id="SVGID_5_" points="-1,-1 -2,-1 -1,-2 			"/>
		</defs>
		<clipPath id="SVGID_6_">
			<use xlink:href="#SVGID_4_"  style="overflow:visible;"/>
		</clipPath>
		<clipPath id="SVGID_7_" class="st2">
			<use xlink:href="#SVGID_5_"  style="overflow:visible;"/>
		</clipPath>
		
			<linearGradient id="SVGID_8_" gradientUnits="userSpaceOnUse" x1="6.5011" y1="16.9601" x2="12.7961" y2="5.2992" gradientTransform="matrix(1 0 0 -1 0 24)">
			<stop  offset="0.2144" style="stop-color:#808080"/>
			<stop  offset="0.602" style="stop-color:#808080"/>
		</linearGradient>
		<path class="st3" d="M6.7,10.1c-0.1,0.6,0.1,1.6,0.7,3.4c0.6,1.9,1.1,4.5,4,1.4c2.9-3.1-1.8-5.2-2.9-5.7C7.2,8.6,6.9,9.5,6.7,10.1
			z"/>
	</g>
</g>
<linearGradient id="SVGID_9_" gradientUnits="userSpaceOnUse" x1="4.4295" y1="18.5298" x2="7.7633" y2="13.8915" gradientTransform="matrix(1 0 0 -1 0 24)">
	<stop  offset="0.5287" style="stop-color:#272425"/>
	<stop  offset="0.985" style="stop-color:#BABCBE"/>
</linearGradient>
<path class="st4" d="M7.7,9.6c0,0,0,0.2-0.1,0.3s-0.3,0-0.3,0L6.1,8.3L6.7,8L7.7,9.6z"/>
<g>
	
		<linearGradient id="SVGID_10_" gradientUnits="userSpaceOnUse" x1="-107.3502" y1="104.0161" x2="-104.5155" y2="97.8799" gradientTransform="matrix(0.8861 -0.4636 -0.4636 -0.8861 145.9459 47.0929)">
		<stop  offset="0.1064" style="stop-color:#355DC2"/>
		<stop  offset="0.2434" style="stop-color:#365CBD"/>
		<stop  offset="0.4105" style="stop-color:#3759AE"/>
		<stop  offset="0.5932" style="stop-color:#3A5395"/>
		<stop  offset="0.7871" style="stop-color:#3E4C73"/>
		<stop  offset="0.9879" style="stop-color:#434347"/>
		<stop  offset="1" style="stop-color:#434244"/>
	</linearGradient>
	<path class="st5" d="M6.6,8.3c-1,0.5-2,0.4-2.6-0.3c0,0.1,0.1,0.2,0.1,0.3c0.4,0.8,1.6,1,2.7,0.4c1.1-0.6,1.6-1.7,1.2-2.4
		C8,6.3,8,6.2,7.9,6.1C8.1,6.9,7.6,7.8,6.6,8.3z"/>
	
		<linearGradient id="SVGID_11_" gradientUnits="userSpaceOnUse" x1="-106.7995" y1="103.155" x2="-103.9648" y2="97.0188" gradientTransform="matrix(0.8861 -0.4636 -0.4636 -0.8861 145.9459 47.0929)">
		<stop  offset="0.1064" style="stop-color:#355DC2"/>
		<stop  offset="0.2434" style="stop-color:#365CBD"/>
		<stop  offset="0.4105" style="stop-color:#3759AE"/>
		<stop  offset="0.5932" style="stop-color:#3A5395"/>
		<stop  offset="0.7871" style="stop-color:#3E4C73"/>
		<stop  offset="0.9879" style="stop-color:#434347"/>
		<stop  offset="1" style="stop-color:#434244"/>
	</linearGradient>
	<path class="st6" d="M6.6,8.3c0.9-0.5,1.4-1.4,1.3-2.2C7.4,5.6,6.3,5.5,5.4,6C4.4,6.4,3.9,7.3,4.1,8.1C4.6,8.7,5.7,8.8,6.6,8.3z"/>
</g>
<linearGradient id="SVGID_12_" gradientUnits="userSpaceOnUse" x1="-104.2244" y1="98.997" x2="-106.5205" y2="104.6098" gradientTransform="matrix(0.8861 -0.4636 -0.4636 -0.8861 145.9459 47.0929)">
	<stop  offset="0.1064" style="stop-color:#355DC2"/>
	<stop  offset="0.2434" style="stop-color:#365CBD"/>
	<stop  offset="0.4105" style="stop-color:#3759AE"/>
	<stop  offset="0.5932" style="stop-color:#3A5395"/>
	<stop  offset="0.7871" style="stop-color:#3E4C73"/>
	<stop  offset="0.9879" style="stop-color:#434347"/>
	<stop  offset="1" style="stop-color:#434244"/>
</linearGradient>
<path class="st7" d="M3.5,4.8c0,0,0.7,0.6,1.2,2.3c0,0,0.5,0.5,1.3,0.1C6.8,6.7,6.6,6,6.6,6S5.3,4.5,5.3,3.7C5.3,3.7,3.8,4,3.5,4.8z
	"/>
<linearGradient id="SVGID_13_" gradientUnits="userSpaceOnUse" x1="-107.7109" y1="105.916" x2="-103.5382" y2="101.7434" gradientTransform="matrix(0.8861 -0.4636 -0.4636 -0.8861 145.9459 47.0929)">
	<stop  offset="0.2846" style="stop-color:#355DC2"/>
	<stop  offset="0.3872" style="stop-color:#365BB9"/>
	<stop  offset="0.5572" style="stop-color:#39569F"/>
	<stop  offset="0.7735" style="stop-color:#3D4D76"/>
	<stop  offset="1" style="stop-color:#434244"/>
</linearGradient>
<path class="st8" d="M5.7,3.3C6,3.9,5.6,4.7,4.8,5.1C4,5.5,3.2,5.4,2.9,4.8S3,3.5,3.8,3.1C4.6,2.7,5.4,2.8,5.7,3.3z"/>
<linearGradient id="SVGID_14_" gradientUnits="userSpaceOnUse" x1="-107.1011" y1="105.3829" x2="-103.1216" y2="101.4034" gradientTransform="matrix(0.8861 -0.4636 -0.4636 -0.8861 145.9459 47.0929)">
	<stop  offset="0.2846" style="stop-color:#355DC2"/>
	<stop  offset="0.3872" style="stop-color:#365BB9"/>
	<stop  offset="0.5572" style="stop-color:#39569F"/>
	<stop  offset="0.7735" style="stop-color:#3D4D76"/>
	<stop  offset="1" style="stop-color:#434244"/>
</linearGradient>
<path class="st9" d="M5.7,3.3c0.2,0.5-0.2,1.2-1,1.6C3.9,5.3,3.1,5.2,2.8,4.8C2.6,4.3,3,3.5,3.8,3.1S5.5,2.8,5.7,3.3z"/>
<linearGradient id="SVGID_15_" gradientUnits="userSpaceOnUse" x1="-106.201" y1="105.6737" x2="-104.9032" y2="102.8643" gradientTransform="matrix(0.8861 -0.4636 -0.4636 -0.8861 145.9459 47.0929)">
	<stop  offset="0.2637" style="stop-color:#355DC2"/>
	<stop  offset="0.3765" style="stop-color:#365CBD"/>
	<stop  offset="0.5142" style="stop-color:#3759AE"/>
	<stop  offset="0.6647" style="stop-color:#3A5395"/>
	<stop  offset="0.8245" style="stop-color:#3E4C73"/>
	<stop  offset="0.99" style="stop-color:#434347"/>
	<stop  offset="1" style="stop-color:#434244"/>
</linearGradient>
<path class="st10" d="M5.3,3c0.2,0.3-0.3,0.9-0.9,1.2S3,4.5,2.9,4.2C2.7,3.9,3.2,3.4,3.7,3.1C4.3,2.8,5.1,2.7,5.3,3z"/>
<linearGradient id="SVGID_16_" gradientUnits="userSpaceOnUse" x1="-104.8874" y1="102.6128" x2="-105.1735" y2="103.3122" gradientTransform="matrix(0.8861 -0.4636 -0.4636 -0.8861 145.9459 47.0929)">
	<stop  offset="0.3284" style="stop-color:#FFFFFF"/>
	<stop  offset="0.48" style="stop-color:#AABBE5"/>
	<stop  offset="0.6049" style="stop-color:#6B88D2"/>
	<stop  offset="0.6956" style="stop-color:#4469C6"/>
	<stop  offset="0.7429" style="stop-color:#355DC2"/>
</linearGradient>
<path class="st11" d="M4.2,5.1c0,0,0.6-0.2,1-0.6c0.4-0.3,0.5-0.6,0.5-0.7C5.7,3.8,5.6,4.6,4.2,5.1z"/>
<linearGradient id="SVGID_17_" gradientUnits="userSpaceOnUse" x1="-135.5982" y1="144.1116" x2="-135.8844" y2="144.8111" gradientTransform="matrix(0.7736 -0.6336 -0.6336 -0.7736 204.0436 33.3366)">
	<stop  offset="0.3284" style="stop-color:#FFFFFF"/>
	<stop  offset="0.48" style="stop-color:#AABBE5"/>
	<stop  offset="0.6049" style="stop-color:#6B88D2"/>
	<stop  offset="0.6956" style="stop-color:#4469C6"/>
	<stop  offset="0.7429" style="stop-color:#355DC2"/>
</linearGradient>
<path class="st12" d="M6.7,8.3c0,0,0.5-0.3,0.8-0.8c0.3-0.4,0.3-0.7,0.4-0.8C7.9,6.7,8,7.5,6.7,8.3z"/>
<path class="st13" d="M5.6,3.4c0,0,0,0.1,0,0.2S5.4,3.8,5.4,3.8c0,0,0-0.2,0-0.2S5.5,3.4,5.6,3.4z"/>
<path class="st13" d="M5.4,3.8c0,0,0,0.1,0,0.1C5.4,4,5.3,4,5.3,4c0,0,0-0.1,0-0.1C5.4,3.9,5.4,3.8,5.4,3.8z"/>
</svg>
