<?xml version="1.0" encoding="utf-8"?>
<!-- Generator: Adobe Illustrator 26.3.1, SVG Export Plug-In . SVG Version: 6.00 Build 0)  -->
<svg version="1.1" xmlns="http://www.w3.org/2000/svg" xmlns:xlink="http://www.w3.org/1999/xlink" x="0px" y="0px"
	 viewBox="0 0 24 24" style="enable-background:new 0 0 24 24;" xml:space="preserve">
<style type="text/css">
	.st0{display:none;}
	.st1{display:inline;fill-rule:evenodd;clip-rule:evenodd;fill:#212529;}
	.st2{fill:none;stroke:#212529;stroke-miterlimit:10;}
	.st3{fill:none;stroke:#212529;stroke-width:0.5;stroke-linecap:round;stroke-miterlimit:10;}
</style>
<g id="Calque_1" class="st0">
	<path class="st1" d="M3.5,4.5C3.5,3.1,4.6,2,6,2h9c1.4,0,2.5,1.1,2.5,2.5V5H18c1.4,0,2.5,1.1,2.5,2.5v12c0,1.4-1.1,2.5-2.5,2.5H9
		c-1.4,0-2.5-1.1-2.5-2.5V19H6c-1.4,0-2.5-1.1-2.5-2.5V4.5z M17.5,16.5V6H18c0.8,0,1.5,0.7,1.5,1.5v12c0,0.8-0.7,1.5-1.5,1.5H9
		c-0.8,0-1.5-0.7-1.5-1.5V19H15C16.4,19,17.5,17.9,17.5,16.5z M6,3C5.2,3,4.5,3.7,4.5,4.5v12C4.5,17.3,5.2,18,6,18h9
		c0.8,0,1.5-0.7,1.5-1.5v-12C16.5,3.7,15.8,3,15,3H6z M8,10c-0.8,0-1.5,0.7-1.5,1.5v3C6.5,15.3,7.2,16,8,16h5c0.8,0,1.5-0.7,1.5-1.5
		v-3c0-0.8-0.7-1.5-1.5-1.5H8z M7.5,11.5C7.5,11.2,7.7,11,8,11h5c0.3,0,0.5,0.2,0.5,0.5v3c0,0.3-0.2,0.5-0.5,0.5H8
		c-0.3,0-0.5-0.2-0.5-0.5V11.5z M6.5,7.5C6.5,7.2,6.7,7,7,7h7c0.3,0,0.5,0.2,0.5,0.5C14.5,7.8,14.3,8,14,8H7C6.7,8,6.5,7.8,6.5,7.5z
		 M7,5C6.7,5,6.5,5.2,6.5,5.5C6.5,5.8,6.7,6,7,6h4c0.3,0,0.5-0.2,0.5-0.5C11.5,5.2,11.3,5,11,5H7z"/>
</g>
<g id="Calque_2">
	<g>
		<path class="st2" d="M16.1,16c-0.2,1.2-0.3,2-0.3,2c-0.2,1-1.1,1.6-2.1,1.5c0,0-1.6-0.3-1.9-0.3c-2.8-0.5-6.6-1.1-6.6-1.1
			c-1-0.2-1.6-1.1-1.5-2.1c0,0,0.2-1.4,0.3-1.7c0.2-1.2,0.4-2.4,0.6-3.7C5,8.9,5.2,7.4,5.2,7.4c0.2-1,1-1.7,1.8-1.5c0,0,0,0,0.7,0.1
			"/>
	</g>
	<g>
		<path class="st2" d="M18.2,15.2c-0.5,0.6-1.8,1.1-2.8,1.1l-5.5,0.2c-1,0-1.8-0.7-1.9-1.7L7.8,6.1c0-1,0.7-1.8,1.7-1.9L18.1,4
			c1,0,1.8,0.7,1.9,1.7l0.2,5.6C20.2,12.3,18.8,14.6,18.2,15.2z"/>
	</g>
	<g>
		<path class="st2" d="M16.8,15.8c0,0,0-0.7,0-1.5s0.6-1.5,1.5-1.6s1.5,0,1.5,0"/>
	</g>
	<path class="st3" d="M9.1,7.9c2-0.2,4-0.4,6-0.7"/>
	<path class="st3" d="M16.6,7.1c0.5-0.1,1.1-0.1,1.6-0.2"/>
	<path class="st3" d="M9.3,10.2c3.2,0.2,6.3,0.4,9.5,0.6"/>
	<path class="st3" d="M9.4,13.5c0.5-0.1,1-0.1,1.6-0.2"/>
	<path class="st3" d="M12.1,13.2c1.2-0.1,2.4-0.3,3.6-0.4"/>
</g>
</svg>
